# xmcd
#
# Track frame offsets: 
#        150
#        16353
#        29520
#        40998
#        54781
#        70836
#        82708
#        94471
#        110042
#        123748
#        137047
#        151961
#        165673
#        177137
#        190483
#        202237
#        214164
#        231960
#        243340
#        255865
#
# Disc length: 4474 seconds
#
# Revision: 1
# Processed by: cddbd v1.5.2PL0 Copyright (c) Steve Scherf et al.
# Submitted via: ExactAudioCopy v1.0b3
#
DISCID=18117814
DTITLE=Various Artist - Modern CD019  West Coast Jazz - Chet Baker 1953-54
DYEAR=1953
DGENRE=Jazz
TTITLE0=Chet Baker and Strings - I Married An Angel
TTITLE1=Chet Baker and Strings - Love Walked In
TTITLE2=Chet Baker and Strings - A Little Duet
TTITLE3=Chet Baker and Strings - You'd Better Go Now
TTITLE4=Chet Baker and Strings - Why Shouldn't I?
TTITLE5=Chet Baker and Strings - Trickleydidlier
TTITLE6=Chet Baker and Strings - I'm Thru With Love
TTITLE7=Chet Baker and Strings - You Don't Know What Love Is
TTITLE8=Chet Baker Quartet - But Not For Me
TTITLE9=Chet Baker Quartet - I Get Along Without You Very Well
TTITLE10=Chet Baker Quartet - I Fall In Love To Easily
TTITLE11=Chet Baker Quartet - But Not For Me
TTITLE12=Chet Baker Quartet - Time After Time
TTITLE13=Chet Baker Quartet - There Will Never Be Another You
TTITLE14=Chet Baker Quartet - Look For The Silver Lining
TTITLE15=Chet Baker and Strings - What A Diference A Day Made
TTITLE16=Chet Baker and Strings - The Wind
TTITLE17=Chet Baker and Strings - Love
TTITLE18=Chet Baker and Strings - I Love You
TTITLE19=Chet Baker Quintet - All The Things You Are
EXTD=YEAR: 2008
EXTT0=
EXTT1=
EXTT2=
EXTT3=
EXTT4=
EXTT5=
EXTT6=
EXTT7=
EXTT8=
EXTT9=
EXTT10=
EXTT11=
EXTT12=
EXTT13=
EXTT14=
EXTT15=
EXTT16=
EXTT17=
EXTT18=
EXTT19=
PLAYORDER=
